# xmcd
#
# Track frame offsets:
#	150
#	17550
#	35775
#	50700
#	68175
#	88800
#	103800
#	126900
#	150750
#	176175
#
# Disc length: 2701 seconds
#
# Revision: 1
# Processed by: cddbd v1.5.2PL0 Copyright (c) Steve Scherf et al.
# Submitted via: audiograbber 1.83.01
#
DISCID=870a8b0a
DTITLE=Richie Arndt - At the end of the day
DYEAR=2014
DGENRE=Blues
TTITLE0=Suffer
TTITLE1=Stop That Spell On Me
TTITLE2=How Can I Win (Your Love Again)
TTITLE3=My Brother Jake
TTITLE4=Bitter Years
TTITLE5=Take Me As I Am
TTITLE6=At The End Of The Day
TTITLE7=Can't Believe It's True
TTITLE8=Bad Habits
TTITLE9=On A Night Like This
EXTD=
EXTT0=
EXTT1=
EXTT2=
EXTT3=
EXTT4=
EXTT5=
EXTT6=
EXTT7=
EXTT8=
EXTT9=
PLAYORDER=
